<svg width="25" height="25" viewBox="0 0 25 25" fill="none" xmlns="http://www.w3.org/2000/svg">
<g clip-path="url(#clip0_22_29)">
<path d="M12.5927 3.78544C12.2513 3.96014 11.9647 4.22569 11.7646 4.55285C11.5644 4.88001 11.4585 5.25608 11.4584 5.63961L11.4573 8.33231L9.37504 8.33336C9.09877 8.33336 8.83382 8.4431 8.63847 8.63845C8.44312 8.8338 8.33337 9.09875 8.33337 9.37502V15.625L8.34067 15.7469C8.37052 16.0003 8.49232 16.2339 8.68299 16.4034C8.87365 16.573 9.1199 16.6667 9.37504 16.6667L11.4573 16.6656L11.4584 19.3604C11.4585 19.7724 11.5807 20.1751 11.8096 20.5176C12.0385 20.8602 12.3639 21.1271 12.7445 21.2848C13.1251 21.4424 13.544 21.4837 13.948 21.4033C14.3521 21.323 14.7233 21.1246 15.0146 20.8334L21.875 13.9729C22.2656 13.5823 22.485 13.0524 22.485 12.5C22.485 11.9476 22.2656 11.4178 21.875 11.0271L15.0146 4.16669C14.7233 3.87516 14.352 3.6766 13.9478 3.59613C13.5436 3.51566 13.1246 3.55689 12.7438 3.7146L12.5927 3.78544Z" fill="#5162FF"/>
<path d="M3.12504 8.33337C3.38018 8.33341 3.62643 8.42708 3.81709 8.59662C4.00776 8.76616 4.12956 8.99978 4.15942 9.25317L4.16671 9.37504V15.625C4.16641 15.8905 4.06475 16.1459 3.88249 16.339C3.70023 16.532 3.45113 16.6482 3.18609 16.6638C2.92104 16.6793 2.66006 16.5931 2.45647 16.4227C2.25287 16.2523 2.12202 16.0106 2.09067 15.7469L2.08337 15.625V9.37504C2.08337 9.09877 2.19312 8.83382 2.38847 8.63847C2.58382 8.44312 2.84877 8.33337 3.12504 8.33337Z" fill="#5162FF"/>
<path d="M6.25004 8.33337C6.50518 8.33341 6.75143 8.42708 6.94209 8.59662C7.13276 8.76616 7.25456 8.99978 7.28442 9.25317L7.29171 9.37504V15.625C7.29141 15.8905 7.18975 16.1459 7.00749 16.339C6.82523 16.532 6.57613 16.6482 6.31109 16.6638C6.04604 16.6793 5.78506 16.5931 5.58147 16.4227C5.37787 16.2523 5.24702 16.0106 5.21567 15.7469L5.20837 15.625V9.37504C5.20837 9.09877 5.31812 8.83382 5.51347 8.63847C5.70882 8.44312 5.97377 8.33337 6.25004 8.33337Z" fill="#5162FF"/>
</g>
<defs>
<clipPath id="clip0_22_29">
<rect width="25" height="25" fill="white"/>
</clipPath>
</defs>
</svg>
