<svg width="59" height="56" viewBox="0 0 59 56" fill="none" xmlns="http://www.w3.org/2000/svg">
<circle cx="23.5" cy="23.5" r="23.5" fill="#EEEFFF"/>
<g clip-path="url(#clip0_24_69)">
<path d="M28.6471 34.9368L28.0272 34.8053C25.079 34.1774 21.4324 33.5931 18.2213 31.8786C14.8375 30.0726 12.6209 27.7167 11.4429 24.676C10.1302 21.2797 11.7471 17.4483 15.0471 16.1342C17.666 15.0913 20.0144 15.9221 21.3681 16.6576C21.8456 15.1929 22.9801 12.9752 25.599 11.9323C28.899 10.6182 32.7071 12.2893 34.0878 15.6566C35.3253 18.6755 35.3343 21.9086 34.1161 25.5472C32.9632 29.0014 30.7165 31.9325 29.007 34.4151L28.6471 34.9368Z" fill="#5162FF"/>
</g>
<path d="M49.6246 43.1722C50.0977 44.566 48.9538 45.9761 47.4923 45.8007L34.8816 44.2867C33.3188 44.0991 32.5752 42.2634 33.5668 41.041L42.0957 30.5274C43.0873 29.3051 45.037 29.6542 45.5428 31.1447L49.6246 43.1722Z" fill="#EEEFFF"/>
<defs>
<clipPath id="clip0_24_69">
<rect width="30" height="30" fill="white" transform="translate(5 16.0988) rotate(-21.7131)"/>
</clipPath>
</defs>
</svg>
