<svg width="149" height="24" viewBox="0 0 149 24" fill="none" xmlns="http://www.w3.org/2000/svg">
<path d="M33.122 20V7.335H38.477C39.3497 7.335 40.0977 7.48233 40.721 7.777C41.3443 8.07167 41.8203 8.49667 42.149 9.052C42.4777 9.596 42.642 10.259 42.642 11.041C42.642 11.5963 42.489 12.129 42.183 12.639C41.877 13.1377 41.3727 13.557 40.67 13.897V12.605C41.3387 12.8657 41.8543 13.1773 42.217 13.54C42.5797 13.9027 42.829 14.2993 42.965 14.73C43.101 15.1493 43.169 15.5913 43.169 16.056C43.169 17.3027 42.7553 18.2717 41.928 18.963C41.1007 19.6543 39.9503 20 38.477 20H33.122ZM35.757 17.705H38.783C39.3157 17.705 39.7407 17.552 40.058 17.246C40.3753 16.94 40.534 16.5433 40.534 16.056C40.534 15.5573 40.3753 15.155 40.058 14.849C39.7407 14.543 39.3157 14.39 38.783 14.39H35.757V17.705ZM35.757 12.095H38.664C39.072 12.095 39.395 11.9817 39.633 11.755C39.8823 11.517 40.007 11.2053 40.007 10.82C40.007 10.4347 39.8823 10.1287 39.633 9.902C39.395 9.664 39.072 9.545 38.664 9.545H35.757V12.095ZM46.6953 20.204C46.0266 20.204 45.4486 20.0963 44.9613 19.881C44.474 19.6657 44.1 19.3597 43.8393 18.963C43.5786 18.555 43.4483 18.0733 43.4483 17.518C43.4483 16.9967 43.5673 16.5377 43.8053 16.141C44.0433 15.733 44.406 15.393 44.8933 15.121C45.392 14.849 46.0096 14.6563 46.7463 14.543L49.5853 14.084V15.954L47.2053 16.379C46.8426 16.447 46.565 16.566 46.3723 16.736C46.1796 16.8947 46.0833 17.127 46.0833 17.433C46.0833 17.7163 46.191 17.9373 46.4063 18.096C46.6216 18.2547 46.888 18.334 47.2053 18.334C47.6246 18.334 47.993 18.2433 48.3103 18.062C48.6276 17.8807 48.8713 17.637 49.0413 17.331C49.2226 17.0137 49.3133 16.668 49.3133 16.294V13.88C49.3133 13.5287 49.1716 13.234 48.8883 12.996C48.6163 12.758 48.2423 12.639 47.7663 12.639C47.313 12.639 46.9106 12.7637 46.5593 13.013C46.2193 13.2623 45.97 13.591 45.8113 13.999L43.7713 13.03C43.9526 12.5087 44.2416 12.061 44.6383 11.687C45.035 11.313 45.511 11.024 46.0663 10.82C46.6216 10.616 47.228 10.514 47.8853 10.514C48.6673 10.514 49.3586 10.6557 49.9593 10.939C50.56 11.2223 51.0246 11.619 51.3533 12.129C51.6933 12.6277 51.8633 13.2113 51.8633 13.88V20H49.4833V18.504L50.0613 18.402C49.7893 18.81 49.489 19.15 49.1603 19.422C48.8316 19.6827 48.4633 19.8753 48.0553 20C47.6473 20.136 47.194 20.204 46.6953 20.204ZM52.8834 20V10.718H55.2634V12.945L55.0934 12.622C55.2974 11.84 55.6318 11.313 56.0964 11.041C56.5724 10.7577 57.1334 10.616 57.7794 10.616H58.3234V12.826H57.5244C56.9011 12.826 56.3968 13.0187 56.0114 13.404C55.6261 13.778 55.4334 14.3107 55.4334 15.002V20H52.8834ZM58.5911 20V10.718H60.9711V12.979L60.7161 12.605C60.8521 11.891 61.1807 11.364 61.7021 11.024C62.2234 10.684 62.8467 10.514 63.5721 10.514C64.3427 10.514 65.0171 10.7123 65.5951 11.109C66.1844 11.4943 66.5527 12.0157 66.7001 12.673L65.9691 12.741C66.2751 11.9817 66.7114 11.4207 67.2781 11.058C67.8447 10.6953 68.5077 10.514 69.2671 10.514C69.9357 10.514 70.5251 10.6613 71.0351 10.956C71.5564 11.2507 71.9644 11.6643 72.2591 12.197C72.5537 12.7183 72.7011 13.3303 72.7011 14.033V20H70.1511V14.577C70.1511 14.2143 70.0831 13.9027 69.9471 13.642C69.8224 13.3813 69.6411 13.1773 69.4031 13.03C69.1651 12.8827 68.8761 12.809 68.5361 12.809C68.2074 12.809 67.9184 12.8827 67.6691 13.03C67.4311 13.1773 67.2441 13.3813 67.1081 13.642C66.9834 13.9027 66.9211 14.2143 66.9211 14.577V20H64.3711V14.577C64.3711 14.2143 64.3031 13.9027 64.1671 13.642C64.0424 13.3813 63.8611 13.1773 63.6231 13.03C63.3851 12.8827 63.0961 12.809 62.7561 12.809C62.4274 12.809 62.1384 12.8827 61.8891 13.03C61.6511 13.1773 61.4641 13.3813 61.3281 13.642C61.2034 13.9027 61.1411 14.2143 61.1411 14.577V20H58.5911ZM76.4021 20.204C75.7335 20.204 75.1555 20.0963 74.6681 19.881C74.1808 19.6657 73.8068 19.3597 73.5461 18.963C73.2855 18.555 73.1551 18.0733 73.1551 17.518C73.1551 16.9967 73.2741 16.5377 73.5121 16.141C73.7501 15.733 74.1128 15.393 74.6001 15.121C75.0988 14.849 75.7165 14.6563 76.4531 14.543L79.2921 14.084V15.954L76.9121 16.379C76.5495 16.447 76.2718 16.566 76.0791 16.736C75.8865 16.8947 75.7901 17.127 75.7901 17.433C75.7901 17.7163 75.8978 17.9373 76.1131 18.096C76.3285 18.2547 76.5948 18.334 76.9121 18.334C77.3315 18.334 77.6998 18.2433 78.0171 18.062C78.3345 17.8807 78.5781 17.637 78.7481 17.331C78.9295 17.0137 79.0201 16.668 79.0201 16.294V13.88C79.0201 13.5287 78.8785 13.234 78.5951 12.996C78.3231 12.758 77.9491 12.639 77.4731 12.639C77.0198 12.639 76.6175 12.7637 76.2661 13.013C75.9261 13.2623 75.6768 13.591 75.5181 13.999L73.4781 13.03C73.6595 12.5087 73.9485 12.061 74.3451 11.687C74.7418 11.313 75.2178 11.024 75.7731 10.82C76.3285 10.616 76.9348 10.514 77.5921 10.514C78.3741 10.514 79.0655 10.6557 79.6661 10.939C80.2668 11.2223 80.7315 11.619 81.0601 12.129C81.4001 12.6277 81.5701 13.2113 81.5701 13.88V20H79.1901V18.504L79.7681 18.402C79.4961 18.81 79.1958 19.15 78.8671 19.422C78.5385 19.6827 78.1701 19.8753 77.7621 20C77.3541 20.136 76.9008 20.204 76.4021 20.204ZM82.5903 20V10.718H84.9703V12.554L84.8343 12.146C85.0496 11.5907 85.3953 11.1827 85.8713 10.922C86.3586 10.65 86.9253 10.514 87.5713 10.514C88.2739 10.514 88.8859 10.6613 89.4073 10.956C89.9399 11.2507 90.3536 11.6643 90.6483 12.197C90.9429 12.7183 91.0903 13.3303 91.0903 14.033V20H88.5403V14.577C88.5403 14.2143 88.4666 13.9027 88.3193 13.642C88.1833 13.3813 87.9849 13.1773 87.7243 13.03C87.4749 12.8827 87.1803 12.809 86.8403 12.809C86.5116 12.809 86.2169 12.8827 85.9563 13.03C85.6956 13.1773 85.4916 13.3813 85.3443 13.642C85.2083 13.9027 85.1403 14.2143 85.1403 14.577V20H82.5903ZM100.327 20.204C99.4201 20.204 98.5757 20.0397 97.7937 19.711C97.0231 19.3823 96.3487 18.9233 95.7707 18.334C95.1927 17.7447 94.7394 17.0533 94.4107 16.26C94.0934 15.4667 93.9347 14.5997 93.9347 13.659C93.9347 12.7183 94.0934 11.8513 94.4107 11.058C94.7281 10.2533 95.1757 9.562 95.7537 8.984C96.3317 8.39467 97.0061 7.94133 97.7767 7.624C98.5587 7.29533 99.4087 7.131 100.327 7.131C101.245 7.131 102.066 7.284 102.792 7.59C103.528 7.896 104.152 8.304 104.662 8.814C105.172 9.324 105.534 9.89067 105.75 10.514L103.421 11.636C103.205 11.024 102.826 10.5197 102.282 10.123C101.749 9.715 101.097 9.511 100.327 9.511C99.5787 9.511 98.9214 9.68667 98.3547 10.038C97.7881 10.3893 97.3461 10.8767 97.0287 11.5C96.7227 12.112 96.5697 12.8317 96.5697 13.659C96.5697 14.4863 96.7227 15.2117 97.0287 15.835C97.3461 16.4583 97.7881 16.9457 98.3547 17.297C98.9214 17.6483 99.5787 17.824 100.327 17.824C101.097 17.824 101.749 17.6257 102.282 17.229C102.826 16.821 103.205 16.311 103.421 15.699L105.75 16.821C105.534 17.4443 105.172 18.011 104.662 18.521C104.152 19.031 103.528 19.439 102.792 19.745C102.066 20.051 101.245 20.204 100.327 20.204ZM109.736 20.204C108.988 20.204 108.347 20.0453 107.815 19.728C107.293 19.3993 106.897 18.946 106.625 18.368C106.353 17.79 106.217 17.1157 106.217 16.345V10.718H108.767V16.141C108.767 16.4923 108.835 16.804 108.971 17.076C109.118 17.3367 109.322 17.5407 109.583 17.688C109.843 17.8353 110.138 17.909 110.467 17.909C110.807 17.909 111.101 17.8353 111.351 17.688C111.611 17.5407 111.81 17.3367 111.946 17.076C112.093 16.804 112.167 16.4923 112.167 16.141V10.718H114.717V20H112.337V18.164L112.473 18.572C112.257 19.1273 111.906 19.541 111.419 19.813C110.943 20.0737 110.382 20.204 109.736 20.204ZM120.932 20.204C120.298 20.204 119.708 20.0907 119.164 19.864C118.632 19.626 118.201 19.2803 117.872 18.827L118.11 18.3V20H115.73V7.131H118.28V12.486L117.889 11.976C118.195 11.5113 118.609 11.1543 119.13 10.905C119.663 10.6443 120.269 10.514 120.949 10.514C121.833 10.514 122.632 10.7293 123.346 11.16C124.06 11.5907 124.627 12.1743 125.046 12.911C125.466 13.6363 125.675 14.4523 125.675 15.359C125.675 16.2543 125.466 17.0703 125.046 17.807C124.638 18.5437 124.077 19.1273 123.363 19.558C122.649 19.9887 121.839 20.204 120.932 20.204ZM120.626 17.909C121.102 17.909 121.522 17.8013 121.884 17.586C122.247 17.3707 122.53 17.0703 122.734 16.685C122.938 16.2997 123.04 15.8577 123.04 15.359C123.04 14.8603 122.938 14.424 122.734 14.05C122.53 13.6647 122.247 13.3643 121.884 13.149C121.522 12.9223 121.102 12.809 120.626 12.809C120.173 12.809 119.765 12.9167 119.402 13.132C119.051 13.3473 118.773 13.6477 118.569 14.033C118.377 14.4183 118.28 14.8603 118.28 15.359C118.28 15.8577 118.377 16.2997 118.569 16.685C118.773 17.0703 119.051 17.3707 119.402 17.586C119.765 17.8013 120.173 17.909 120.626 17.909ZM129.192 20.204C128.523 20.204 127.945 20.0963 127.458 19.881C126.97 19.6657 126.596 19.3597 126.336 18.963C126.075 18.555 125.945 18.0733 125.945 17.518C125.945 16.9967 126.064 16.5377 126.302 16.141C126.54 15.733 126.902 15.393 127.39 15.121C127.888 14.849 128.506 14.6563 129.243 14.543L132.082 14.084V15.954L129.702 16.379C129.339 16.447 129.061 16.566 128.869 16.736C128.676 16.8947 128.58 17.127 128.58 17.433C128.58 17.7163 128.687 17.9373 128.903 18.096C129.118 18.2547 129.384 18.334 129.702 18.334C130.121 18.334 130.489 18.2433 130.807 18.062C131.124 17.8807 131.368 17.637 131.538 17.331C131.719 17.0137 131.81 16.668 131.81 16.294V13.88C131.81 13.5287 131.668 13.234 131.385 12.996C131.113 12.758 130.739 12.639 130.263 12.639C129.809 12.639 129.407 12.7637 129.056 13.013C128.716 13.2623 128.466 13.591 128.308 13.999L126.268 13.03C126.449 12.5087 126.738 12.061 127.135 11.687C127.531 11.313 128.007 11.024 128.563 10.82C129.118 10.616 129.724 10.514 130.382 10.514C131.164 10.514 131.855 10.6557 132.456 10.939C133.056 11.2223 133.521 11.619 133.85 12.129C134.19 12.6277 134.36 13.2113 134.36 13.88V20H131.98V18.504L132.558 18.402C132.286 18.81 131.985 19.15 131.657 19.422C131.328 19.6827 130.96 19.8753 130.552 20C130.144 20.136 129.69 20.204 129.192 20.204ZM135.38 20V10.718H137.93V20H135.38ZM135.38 9.885V7.335H137.93V9.885H135.38ZM138.946 20V10.718H141.326V12.554L141.19 12.146C141.405 11.5907 141.751 11.1827 142.227 10.922C142.714 10.65 143.281 10.514 143.927 10.514C144.63 10.514 145.242 10.6613 145.763 10.956C146.296 11.2507 146.709 11.6643 147.004 12.197C147.299 12.7183 147.446 13.3303 147.446 14.033V20H144.896V14.577C144.896 14.2143 144.822 13.9027 144.675 13.642C144.539 13.3813 144.341 13.1773 144.08 13.03C143.831 12.8827 143.536 12.809 143.196 12.809C142.867 12.809 142.573 12.8827 142.312 13.03C142.051 13.1773 141.847 13.3813 141.7 13.642C141.564 13.9027 141.496 14.2143 141.496 14.577V20H138.946Z" fill="black"/>
<path d="M13.5226 0.580648C13.0587 -0.193549 11.9413 -0.193549 11.4774 0.580648L10.2027 2.70836C11.2333 6.85788 11.241 14.802 4.53783 20.2182L4.32375 22.6959C4.24598 23.5961 5.14998 24.2559 5.97828 23.9034L11.7729 21.4375C17.8789 16.3264 17.4751 8.77147 16.3953 5.37556L13.5226 0.580648Z" fill="black"/>
<path d="M18.7257 7.03727C19.3372 11.037 18.8569 17.1253 14.1685 21.8381L19.0217 23.9034C19.85 24.2559 20.754 23.5961 20.6762 22.6959L20.1076 16.114C20.0796 15.7906 20.1834 15.4697 20.3953 15.2245L24.7069 10.2354C25.2966 9.55304 24.9513 8.48556 24.0749 8.28169L18.7257 7.03727Z" fill="black"/>
<path d="M4.78166 17.3961C8.46508 13.5318 9.07413 8.67738 8.70599 5.20646L8.08599 6.24129C7.91935 6.51943 7.64755 6.71779 7.33271 6.79103L0.925078 8.28169C0.0487159 8.48556 -0.296585 9.55304 0.293106 10.2354L4.60471 15.2245C4.81655 15.4697 4.92037 15.7906 4.89243 16.114L4.78166 17.3961Z" fill="black"/>
</svg>
