<svg width="18" height="17" viewBox="0 0 18 17" fill="none" xmlns="http://www.w3.org/2000/svg">
<path d="M0 8.5C0 7.67157 0.671573 7 1.5 7H16.5C17.3284 7 18 7.67157 18 8.5C18 9.32843 17.3284 10 16.5 10H1.5C0.671573 10 0 9.32843 0 8.5Z" fill="black"/>
<path d="M3 1.5C3 0.671573 3.67157 0 4.5 0H16.5C17.3284 0 18 0.671573 18 1.5C18 2.32843 17.3284 3 16.5 3H4.5C3.67157 3 3 2.32843 3 1.5Z" fill="black"/>
<path d="M0 15.5C0 14.6716 0.671573 14 1.5 14H13.5C14.3284 14 15 14.6716 15 15.5C15 16.3284 14.3284 17 13.5 17H1.5C0.671573 17 0 16.3284 0 15.5Z" fill="black"/>
</svg>
