<svg width="1058" height="646" viewBox="0 0 1058 646" fill="none" xmlns="http://www.w3.org/2000/svg">
<path d="M721.223 31.9911C726.429 19.9017 743.571 19.9017 748.777 31.9911L818.81 194.616C820.982 199.658 825.735 203.112 831.202 203.619L1007.51 219.971C1020.62 221.186 1025.91 237.489 1016.02 246.176L882.999 363.035C878.875 366.659 877.059 372.247 878.266 377.603L917.196 550.333C920.09 563.174 906.223 573.249 894.905 566.529L742.658 476.127C737.938 473.324 732.062 473.324 727.342 476.127L575.095 566.529C563.777 573.249 549.91 563.174 552.804 550.333L591.734 377.603C592.941 372.247 591.125 366.659 587.001 363.035L453.977 246.176C444.088 237.489 449.385 221.186 462.491 219.971L638.798 203.619C644.265 203.112 649.018 199.658 651.19 194.616L721.223 31.9911Z" fill="#F5F5FF"/>
<path d="M248.36 188.2C366.92 188.2 437.6 269.52 437.6 372.12C437.6 483.84 353.24 565.16 221.76 565.16C91.0402 565.16 0.600157 484.6 21.1202 372.88H154.12C141.96 424.56 173.12 458.76 224.04 458.76C273.44 458.76 304.6 426.84 304.6 375.92C304.6 323.48 271.92 287 216.44 287C183 287 156.4 299.92 143.48 319.68L16.5602 280.92C42.4002 204.16 59.8802 103.08 59.8802 21H411V123.6H176.16C173.12 153.24 169.32 182.12 163.24 209.48C186.04 195.04 214.92 188.2 248.36 188.2Z" fill="#F5F5FF"/>
</svg>
