<svg width="11" height="12" viewBox="0 0 11 12" fill="none" xmlns="http://www.w3.org/2000/svg">
<path d="M1.12426 2.96574L0.217025 2.70769L1.25922 1.92245L1.12426 2.96574ZM2.11173 1.28011L3.13243 1.43442L3.12815 0.514287L2.11173 1.28011ZM2.88201 1.81839L1.71632 1.64201L1.56401 2.81277L2.88369 1.81845L2.88201 1.81839ZM4.41866 0.660592L3.54339 0.414618L3.54861 1.31746L4.42035 0.660645L4.41866 0.660592ZM0.0174404 3.08354L0.0247075 3.97325L0.881022 3.32805L0.0174404 3.08354ZM1.65715 3.26378L4.16534 4.89238L3.29217 2.03186L1.65715 3.26378ZM0.287559 4.2957L3.37597 4.87442L1.3027 3.53083L0.287559 4.2957ZM4.66239 0.999453L3.64726 1.76431L4.36849 4.12661L4.66239 0.999453ZM4.9772 2.17501L4.88229 3.18083C5.54398 3.05657 6.22722 3.11949 6.85508 3.36251C7.48295 3.60552 8.03051 4.01899 8.43612 4.55634C9.63431 6.14746 9.31583 8.41781 7.72482 9.61657C6.13381 10.8153 3.86429 10.4962 2.66552 8.90522C2.26084 8.36715 2.01441 7.7268 1.95395 7.05626C1.8935 6.38572 2.02143 5.71162 2.32334 5.10985L1.33035 4.92373C1.01225 5.6668 0.895806 6.48064 0.992762 7.2831C1.08972 8.08556 1.39664 8.84824 1.88256 9.49417C3.40622 11.5164 6.29192 11.9229 8.3144 10.3991C10.3369 8.87524 10.7425 5.99015 9.21868 3.96769C8.73181 3.32211 8.0832 2.81645 7.33836 2.50177C6.59352 2.18709 5.77946 2.07406 4.9772 2.17501Z" fill="#5162FF"/>
</svg>
