<svg width="60" height="47" viewBox="0 0 60 47" fill="none" xmlns="http://www.w3.org/2000/svg">
<circle cx="23.5" cy="23.5" r="23.5" fill="#5162FF"/>
<path d="M18.2207 14.6536C18.1764 13.7892 19.1764 13.2805 19.8489 13.8253L24.5116 17.6028C24.789 17.8275 25.1651 17.8874 25.4985 17.7598L31.1032 15.6154C31.9115 15.3061 32.7044 16.1 32.394 16.9079L30.2422 22.5098C30.1143 22.843 30.1736 23.2192 30.3979 23.4968L34.1693 28.1645C34.7132 28.8377 34.2032 29.8371 33.3389 29.7916L27.3463 29.4762C26.9899 29.4575 26.6504 29.6301 26.4557 29.9293L23.1819 34.9585C22.7097 35.6838 21.6016 35.5076 21.3778 34.6716L19.8259 28.8748C19.7336 28.53 19.4645 28.2605 19.1198 28.1678L13.3251 26.6083C12.4894 26.3834 12.3146 25.275 13.0405 24.8038L18.074 21.5366C18.3734 21.3423 18.5465 21.0031 18.5282 20.6466L18.2207 14.6536Z" fill="#F5F5FF"/>
<path d="M54.6392 31.923C55.705 32.9382 55.346 34.7181 53.97 35.2408L42.0965 39.751C40.6251 40.3099 39.1145 39.0288 39.4258 37.4859L42.1027 24.2152C42.4139 22.6723 44.303 22.0769 45.4427 23.1625L54.6392 31.923Z" fill="#5162FF"/>
</svg>
